<svg xmlns="http://www.w3.org/2000/svg" viewBox="0 0 205.94 44.71"><defs><style>.cls-1{fill:#f47533;}.cls-2{fill:#1d1e1c;}</style></defs><g id="katman_2" data-name="katman 2"><g id="katman_1-2" data-name="katman 1"><path class="cls-1" d="M23,41.28a27.33,27.33,0,0,0-4-.84c2.15-3.74,9.67-17.63,6.5-24.11h0a7.61,7.61,0,0,0,2.82-3.54,5.68,5.68,0,0,0,.38-.63l.54-1.05-.85.82a23.31,23.31,0,0,0-2.84,3.2,10,10,0,0,1-6.17,2c-2.9,0-6.12-1.11-9.58-3.29C7,12.1,5.26,9.75,5,7.28A6.89,6.89,0,0,1,7.43,1.52c.64-.59.91-1,.8-1.31A.36.36,0,0,0,7.88,0,4.19,4.19,0,0,0,5.72,1.49C4,3.36.09,9,1.08,21.26l0,.33.28-.18a12.27,12.27,0,0,0,1.55-1.5,4.35,4.35,0,0,1,.35-.34c0,.11,0,.3.06.48a9.89,9.89,0,0,0,2,5.38l.72,1-.37-1.17C4.32,20.9,4.25,18.5,5.49,17.7l0,0c.27.07.55,1.84.77,3.27A51.38,51.38,0,0,0,7.5,26.9a87.83,87.83,0,0,0,5.34,13.41,30.29,30.29,0,0,0-5.67,1,27.42,27.42,0,0,0-3.74,1.37c-.6.28-1.19.57-1.77.9A15.23,15.23,0,0,0,0,44.71c1.27-.34,2.53-.64,3.79-.9s2.51-.49,3.77-.68a54.62,54.62,0,0,1,7.54-.61,48.69,48.69,0,0,1,7.52.54,67.36,67.36,0,0,1,7.53,1.65A23,23,0,0,0,23,41.28Zm2.76-22.46c.7,5.79-3.57,14.8-6,19.4C21.93,33.44,25.84,24.14,25.77,18.82ZM25,16l.19-.12a1,1,0,0,0,0,.62,0,0,0,0,1,0,0,9.16,9.16,0,0,1-5.65,1A10.39,10.39,0,0,0,25,16ZM7.88,26.79a51.61,51.61,0,0,1-1.18-5.9c-.11-.71-.21-1.3-.3-1.78.49,1.79,1,4.82,1.83,7.75a107.84,107.84,0,0,0,3.88,11A80.34,80.34,0,0,1,7.88,26.79Zm7.2,13.42q-.84,0-1.68.06C12.32,37.09,9.08,26.45,12.2,22a5,5,0,0,1,4.37-2.06,4.65,4.65,0,0,1,4.2,2c2.95,4.51-1.12,15.44-2.34,18.5A25.15,25.15,0,0,0,15.08,40.21Z"/><path class="cls-2" d="M36.9,33.32l2.56-1.92a3.34,3.34,0,0,0,2.75,1.43c1,0,1.67-.31,1.67-1,0-.56-.42-.83-1.3-1.12L41,30.13c-1.92-.64-3.28-1.8-3.28-4,0-2.6,2.15-3.94,4.5-3.94A5.37,5.37,0,0,1,46.64,24l-2,2.12a2.76,2.76,0,0,0-2.17-.95c-.86,0-1.29.39-1.29.91s.3.76.94,1l1.74.58c2.64.87,3.53,2.14,3.53,4,0,2.42-1.51,4.17-5,4.17A6.55,6.55,0,0,1,36.9,33.32Z"/><path class="cls-2" d="M47.67,29a7.09,7.09,0,1,1,7.08,6.77A6.83,6.83,0,0,1,47.67,29Zm10.56,0a3.48,3.48,0,1,0-6.95,0,3.48,3.48,0,1,0,6.95,0Z"/><path class="cls-2" d="M62.55,30.46V22.37h3.53v8.06c0,1.49.7,2.34,2.19,2.34s2.2-.85,2.2-2.34V22.37H74v8.09c0,3.55-2.43,5.3-5.73,5.3S62.55,34,62.55,30.46Z"/><path class="cls-2" d="M75.22,22.37h3.54V32.6h5.6v3H75.22Z"/><path class="cls-2" d="M86,22.24c0-.14.1-.12.18,0l6.32,7.1,6.23-7.1c.08-.1.16-.12.17,0l.78,13.33H96.18l-.31-5.63-3.3,3.82a.11.11,0,0,1-.18,0L89,29.92l-.31,5.65H85.19Z"/><path class="cls-2" d="M103.48,35.57H100l6.43-13.43c.05-.14.17-.14.23,0l6.4,13.43h-3.65l-.5-1.13h-5Zm2.94-6.83L105.1,31.8h2.67Z"/><path class="cls-2" d="M114.57,25.31h-3.49V22.37H121.6v2.94h-3.5V35.57h-3.53Z"/><path class="cls-2" d="M122.58,22.37h9.52v2.94h-6V27.6H131v2.82h-4.85V32.6h6v3h-9.53Z"/><path class="cls-2" d="M145.32,35.74A6.72,6.72,0,0,1,138.45,29a6.65,6.65,0,0,1,6.67-6.75,6.42,6.42,0,0,1,5.71,2.83l-2.66,1.8a3.28,3.28,0,0,0-3-1.57c-1.94,0-3.12,1.62-3.12,3.69s1.22,3.71,3.24,3.71a3.16,3.16,0,0,0,3.1-1.83l2.72,1.75A6.11,6.11,0,0,1,145.32,35.74Z"/><path class="cls-2" d="M150.65,29a7.09,7.09,0,1,1,7.08,6.77A6.83,6.83,0,0,1,150.65,29Zm10.56,0a3.48,3.48,0,1,0-7,0,3.48,3.48,0,1,0,7,0Z"/><path class="cls-2" d="M165.4,22.37h9v2.94h-5.44V27.6h4.29v2.82h-4.29v5.15H165.4Z"/><path class="cls-2" d="M175.58,22.37h9v2.94h-5.44V27.6h4.29v2.82h-4.29v5.15h-3.53Z"/><path class="cls-2" d="M185.75,22.3h9.52v3h-6V27.6h4.85v2.82h-4.85v2.11h6v3h-9.53Z"/><path class="cls-2" d="M196.41,22.3h9.52v3h-6V27.6h4.84v2.82h-4.84v2.11h6v3h-9.53Z"/></g></g></svg>