<?xml version="1.0" encoding="utf-8"?>
<!-- Generator: Adobe Illustrator 22.1.0, SVG Export Plug-In . SVG Version: 6.00 Build 0)  -->
<svg version="1.1" id="Layer_1" xmlns:serif="http://www.serif.com/"
	 xmlns="http://www.w3.org/2000/svg" xmlns:xlink="http://www.w3.org/1999/xlink" x="0px" y="0px" viewBox="0 0 1604 278"
	 style="enable-background:new 0 0 1604 278;" xml:space="preserve">
<style type="text/css">
	.st0{fill:#FFFFFF;}
	.st1{fill:#C92830;}
</style>
<g>
	<path class="st0" d="M572.3,47.4v79.9h-21V47.4h-17.1V27.9h55.2v19.5H572.3L572.3,47.4z"/>
	<path class="st0" d="M645.1,19.5c-5.2,0-9.5-4.4-9.5-9.8c0-5.3,4.3-9.7,9.5-9.7c5.2,0,9.5,4.4,9.5,9.7
		C654.6,15.1,650.3,19.5,645.1,19.5z M618.8,19.5c-5.2,0-9.5-4.4-9.5-9.8c0-5.3,4.3-9.7,9.5-9.7c5.2,0,9.5,4.4,9.5,9.7
		C628.3,15.1,624,19.5,618.8,19.5z M632,128.7c-17.9,0-31.4-11.1-31.4-31.3V27.9h21v69.8c0,7,4.6,11.1,10.4,11.1
		c5.8,0,10.4-4.1,10.4-11.1V27.9h21v69.5C663.4,117.5,649.9,128.7,632,128.7L632,128.7z"/>
	<path class="st0" d="M706.9,43.7c-2.8,0-6.2,0.4-8,1.1v27.5h8c9.3,0,13.9-4.5,13.9-13.7C720.8,48.9,716.7,43.7,706.9,43.7z
		 M724.5,127.3l-9.8-29.5c-1.7-5.3-5.2-9.1-10.6-9.1h-5.2v38.6h-20.6V31.6c7.4-3.4,17.7-5.4,28.2-5.4c23.1,0,35,11.4,35,30.9
		c0,13.6-7.8,20.9-15.7,24.2v0.3c4.7,3,8,8.7,10.3,15.2l10.6,30.5H724.5L724.5,127.3z"/>
	<path class="st0" d="M801.9,127.3l-24.6-48.5H777v48.5h-21V27.9h21v44.6h0.2l24.4-44.6H825l-26.7,47.8l27.3,51.6H801.9z"/>
	<path class="st0" d="M833,53.3h20.4v74H833V53.3z M843.3,44.6c-6.1,0-10.9-4.9-10.9-11.3c0-6.3,4.8-11.4,10.9-11.4
		c6.1,0,10.9,5.1,10.9,11.4C854.2,39.7,849.3,44.6,843.3,44.6z"/>
	<path class="st0" d="M906.6,88.7v38.6h-21V88.7l-25.5-60.8h22.5L896,65.2h0.3l13.3-37.4h22.6L906.6,88.7L906.6,88.7z"/>
	<path class="st0" d="M939.5,127.3V27.9h48.2v19.5h-27.6v20.3h24.6v19.1h-24.6v21h27.6v19.5H939.5z"/>
	<path class="st0" d="M535.3,202.1h20.4v74h-20.4V202.1L535.3,202.1z M545.5,191.9c-6.2,0-11.3-5.2-11.3-11.7
		c0-6.5,5.1-11.8,11.3-11.8c6.2,0,11.4,5.4,11.4,11.8C556.8,186.7,551.6,191.9,545.5,191.9z"/>
	<path class="st0" d="M590.1,277.8c-9,0-18.7-2.3-23.7-5.4l6.8-20.3c4,2.6,10.3,4.7,15.9,4.7c6.7,0,10.4-3.9,10.4-9.2
		c0-5.4-4.4-8.5-10-11.4c-9.4-4.9-22-12.4-22-30.5c0-18.4,10.9-30.6,29.8-30.6c9.1,0,16.7,2.3,21.5,5.4l-6.4,18.7
		c-3.2-1.9-8.7-4.1-14.1-4.1c-6.2,0-9.8,3.9-9.8,9.2c0,5.2,4.6,8.5,10.1,11.7c9.4,5.4,22.5,12.4,22.5,30.3
		C621.1,264.7,610.2,277.8,590.1,277.8L590.1,277.8z"/>
	<path class="st0" d="M665.5,196.2v79.9h-21v-79.9h-17.1v-19.5h55.1v19.5L665.5,196.2L665.5,196.2z"/>
	<path class="st0" d="M723.2,208.4c-1.5-5.8-2.2-12.5-2.2-12.5h-0.2c0,0-0.8,6.7-2.2,12.5l-7.9,30.6h20.5L723.2,208.4z M740.3,276.1
		l-5.2-20.2h-28.4l-5.2,20.2h-22l28.9-99.4h25l28.9,99.4H740.3L740.3,276.1z"/>
	<path class="st0" d="M797.3,196.2v79.9h-21v-79.9h-17.1v-19.5h55.2v19.5L797.3,196.2L797.3,196.2z"/>
	<path class="st0" d="M825,202.1h20.4v74H825V202.1L825,202.1z M835.2,193.5c-6.1,0-10.9-4.9-10.9-11.3c0-6.3,4.8-11.4,10.9-11.4
		c6,0,10.9,5.1,10.9,11.4C846.1,188.5,841.3,193.5,835.2,193.5z"/>
	<path class="st0" d="M879.8,277.8c-9,0-18.7-2.3-23.7-5.4l6.8-20.3c4,2.6,10.3,4.7,16,4.7c6.7,0,10.4-3.9,10.4-9.2
		c0-5.4-4.4-8.5-10-11.4c-9.4-4.9-22-12.4-22-30.5c0-18.4,10.9-30.6,29.8-30.6c9.2,0,16.7,2.3,21.5,5.4l-6.4,18.7
		c-3.2-1.9-8.7-4.1-14.1-4.1c-6.2,0-9.8,3.9-9.8,9.2c0,5.2,4.6,8.5,10.1,11.7c9.4,5.4,22.5,12.4,22.5,30.3
		C910.8,264.7,899.9,277.8,879.8,277.8L879.8,277.8z"/>
	<path class="st0" d="M955.2,196.2v79.9h-21v-79.9h-17.1v-19.5h55.1v19.5L955.2,196.2L955.2,196.2z"/>
	<path class="st0" d="M982.9,202.1h20.4v74h-20.4V202.1L982.9,202.1z M993.1,193.5c-6.1,0-10.9-4.9-10.9-11.3
		c0-6.3,4.8-11.4,10.9-11.4c6.1,0,10.9,5.1,10.9,11.4C1004,188.5,999.2,193.5,993.1,193.5z"/>
	<path class="st0" d="M1063.3,276.1l-24.6-48.5h-0.2v48.5h-21v-99.4h21v44.6h0.2l24.4-44.6h23.4l-26.7,47.8l27.3,51.6H1063.3z"/>
	<path class="st0" d="M1170.2,276.1l-24.6-48.5h-0.3v48.5h-21v-99.4h21v44.6h0.3l24.4-44.6h23.4l-26.7,47.8l27.3,51.6H1170.2
		L1170.2,276.1z"/>
	<path class="st0" d="M1232.2,277.5c-17.9,0-31.4-11.1-31.4-31.3v-69.5h21v69.8c0,7,4.6,11.1,10.4,11.1c5.8,0,10.4-4.1,10.4-11.1
		v-69.8h21v69.5C1263.6,266.4,1250.1,277.5,1232.2,277.5z"/>
	<path class="st0" d="M1307.1,192.5c-2.8,0-6.2,0.4-8,1.1v27.5h8c9.3,0,13.8-4.5,13.8-13.7C1321,197.7,1316.9,192.5,1307.1,192.5z
		 M1324.7,276.1l-9.8-29.5c-1.7-5.4-5.2-9.1-10.6-9.1h-5.2v38.6h-20.7v-95.7c7.4-3.4,17.7-5.4,28.2-5.4c23.1,0,35,11.4,35,30.9
		c0,13.6-7.8,20.9-15.7,24.2v0.3c4.7,3,8,8.7,10.3,15.2l10.6,30.5H1324.7L1324.7,276.1z"/>
	<path class="st0" d="M1387.6,277.5c-17.9,0-31.4-11.1-31.4-31.3v-69.5h21v69.8c0,7,4.6,11.1,10.4,11.1c5.8,0,10.4-4.1,10.4-11.1
		v-69.8h21v69.5C1419,266.4,1405.6,277.5,1387.6,277.5L1387.6,277.5z"/>
	<path class="st0" d="M1510.5,276.1l-5.1-57.4c-0.6-6.5-1-14-1-14h-0.2c0,0-1.2,7.4-3,14l-15.1,57.4h-12.8l-15.1-57.4
		c-1.7-6.6-3-14-3-14h-0.2c0,0-0.3,7.5-0.9,14l-5.2,57.4h-19.4l10.8-99.4h23.5l13.2,51.2c1.5,5.9,2.6,13.1,2.6,13.1h0.2
		c0,0,1.1-7.1,2.6-13.1l13.2-51.2h23.5l10.7,99.4H1510.5L1510.5,276.1z"/>
	<path class="st0" d="M1571.8,277.5c-17.9,0-31.4-11.1-31.4-31.3v-69.5h21v69.8c0,7,4.6,11.1,10.4,11.1c5.8,0,10.4-4.1,10.4-11.1
		v-69.8h21v69.5C1603.3,266.4,1589.8,277.5,1571.8,277.5z"/>
	<rect x="138.3" y="78.2" class="st1" width="41.7" height="20.4"/>
	<rect x="207.8" y="52.1" class="st1" width="41.7" height="46.5"/>
	<path class="st0" d="M180,104.2v131.9h27.8V104.2h41.7v173.6H138.3V104.2L180,104.2L180,104.2z"/>
	<rect x="276.7" y="26.1" class="st1" width="41.7" height="72.6"/>
	<rect x="276.7" y="104.2" class="st0" width="41.7" height="173.6"/>
	<path class="st0" d="M0,104.2h111.1v173.6H69.4V145.8H0V104.2L0,104.2z"/>
	<path class="st0" d="M450.3,277.8l-62.5-87.5h-0.6v87.5h-41.7V0h41.7v180.3h0.6l57.4-76h50.5l-62.4,81.2l66.7,92.4H450.3z"/>
</g>
</svg>
